<?xml version="1.0" encoding="UTF-8"?>
<svg width="20px" height="18px" viewBox="0 0 20 18" version="1.1" xmlns="http://www.w3.org/2000/svg" xmlns:xlink="http://www.w3.org/1999/xlink">
    <!-- Generator: Sketch 43.1 (39012) - http://www.bohemiancoding.com/sketch -->
    <title>bars</title>
    <desc>Created with Sketch.</desc>
    <defs></defs>
    <g id="Page-1" stroke="none" stroke-width="1" fill="none" fill-rule="evenodd">
        <g id="iPhone-7-Plus-Copy" transform="translate(-383.000000, -85.000000)" fill="#FFFFFF">
            <path d="M384.413761,89 C383.633365,89 383,88.2552719 383,87.3351831 L383,86.6648169 C383,85.7447281 383.633365,85 384.413761,85 L401.586239,85 C402.367578,85 403,85.7447281 403,86.6648169 L403,87.3351831 C403,88.2552719 402.367578,89 401.586239,89 L384.413761,89 Z M384.413761,96 C383.633365,96 383,95.2552719 383,94.3351831 L383,93.6648169 C383,92.7447281 383.633365,92 384.413761,92 L401.586239,92 C402.367578,92 403,92.7447281 403,93.6648169 L403,94.3351831 C403,95.2552719 402.367578,96 401.586239,96 L384.413761,96 Z M384.413761,103 C383.633365,103 383,102.255272 383,101.335183 L383,100.664817 C383,99.7447281 383.633365,99 384.413761,99 L401.586239,99 C402.367578,99 403,99.7447281 403,100.664817 L403,101.335183 C403,102.255272 402.367578,103 401.586239,103 L384.413761,103 Z" id="bars"></path>
        </g>
    </g>
</svg>