<?xml version="1.0" encoding="UTF-8"?>
<svg width="150px" height="44px" viewBox="0 0 150 44" version="1.1" xmlns="http://www.w3.org/2000/svg" xmlns:xlink="http://www.w3.org/1999/xlink">
    <!-- Generator: Sketch 43.1 (39012) - http://www.bohemiancoding.com/sketch -->
    <title>Group 2</title>
    <desc>Created with Sketch.</desc>
    <defs></defs>
    <g id="Page-1" stroke="none" stroke-width="1" fill="none" fill-rule="evenodd">
        <g id="Desktop-HD-Copy-5" transform="translate(-688.000000, -1784.000000)">
            <g id="Group-2" transform="translate(688.000000, 1784.000000)">
                <g id="Appstore">
                    <rect id="backfround-copy" stroke="#FFFFFF" stroke-width="0.789473684" x="0.394736842" y="0.394736842" width="149.210526" height="43.2105263" rx="4.09672831"></rect>
                    <path d="M57.5755222,33.7911833 L60.0966272,33.7911833 L54.5777376,18.6858233 L52.0248539,18.6858233 L46.5059643,33.7911833 L48.9423263,33.7911833 L50.3511791,29.7819297 L56.1772622,29.7819297 L57.5755222,33.7911833 Z M53.1794777,21.4284458 L53.3595566,21.4284458 L55.5734682,27.8139411 L50.9549732,27.8139411 L53.1794777,21.4284458 Z M66.7813792,22.2030797 C65.2136332,22.2030797 63.8577447,22.9777135 63.1586148,24.2757486 L62.9891287,24.2757486 L62.9891287,22.3915041 L60.7964029,22.3915041 L60.7964029,37.4863961 L63.0738717,37.4863961 L63.0738717,32.0639592 L63.2539507,32.0639592 C63.8577447,33.267782 65.1606688,33.9796077 66.8025649,33.9796077 C69.7156065,33.9796077 71.5693602,31.7080463 71.5693602,28.0861097 C71.5693602,24.4641731 69.7156065,22.2030797 66.7813792,22.2030797 L66.7813792,22.2030797 Z M66.1352136,31.9592789 C64.2284955,31.9592789 63.0315002,30.4728194 63.0315002,28.0965777 C63.0315002,25.709868 64.2284955,24.2234085 66.1458065,24.2234085 C68.0737103,24.2234085 69.2283341,25.678464 69.2283341,28.0861097 C69.2283341,30.5042235 68.0737103,31.9592789 66.1352136,31.9592789 L66.1352136,31.9592789 Z M78.5930842,22.2030797 C77.0253382,22.2030797 75.6694498,22.9777135 74.9703198,24.2757486 L74.8008338,24.2757486 L74.8008338,22.3915041 L72.608108,22.3915041 L72.608108,37.4863961 L74.8855768,37.4863961 L74.8855768,32.0639592 L75.0656557,32.0639592 C75.6694498,33.267782 76.9723739,33.9796077 78.61427,33.9796077 C81.5273115,33.9796077 83.3810653,31.7080463 83.3810653,28.0861097 C83.3810653,24.4641731 81.5273115,22.2030797 78.5930842,22.2030797 L78.5930842,22.2030797 Z M77.9469187,31.9592789 C76.0402006,31.9592789 74.8432053,30.4728194 74.8432053,28.0965777 C74.8432053,25.709868 76.0402006,24.2234085 77.9575115,24.2234085 C79.8854154,24.2234085 81.0400391,25.678464 81.0400391,28.0861097 C81.0400391,30.5042235 79.8854154,31.9592789 77.9469187,31.9592789 L77.9469187,31.9592789 Z M88.2021163,29.7295896 C88.3716024,32.4303401 90.6490712,34.1575642 94.0387923,34.1575642 C97.6615567,34.1575642 99.9284327,32.3465959 99.9284327,29.457421 C99.9284327,27.1858596 98.6361015,25.9296966 95.5006095,25.2074028 L93.8163418,24.7991499 C91.8248807,24.3385568 91.019822,23.7209433 91.019822,22.6427367 C91.019822,21.2818935 92.2697816,20.3921114 94.1447211,20.3921114 C95.9243246,20.3921114 97.1530985,21.2609574 97.375549,22.6532048 L99.6847965,22.6532048 C99.547089,20.1094747 97.2802131,18.3194424 94.1764997,18.3194424 C90.839743,18.3194424 88.6152386,20.1094747 88.6152386,22.7997571 C88.6152386,25.0189784 89.8757911,26.3379495 92.6405323,26.9764991 L94.6108077,27.4475602 C96.6340475,27.9186213 97.5238493,28.6095109 97.5238493,29.7609937 C97.5238493,31.1009009 96.1255893,32.0744272 94.2188712,32.0744272 C92.1744457,32.0744272 90.755,31.163709 90.5537353,29.7295896 L88.2021163,29.7295896 Z M101.888761,19.6279455 L101.888761,22.4438443 L99.9926356,22.4438443 L99.9926356,24.3385568 L101.888761,24.3385568 L101.888761,30.7763921 C101.888761,32.9746773 102.895084,33.8539914 105.426782,33.8539914 C105.871683,33.8539914 106.284805,33.8016513 106.644963,33.7388432 L106.644963,31.8650667 C106.327177,31.8964708 106.147098,31.9174068 105.797533,31.9174068 C104.664095,31.9174068 104.16623,31.3940056 104.16623,30.2006507 L104.16623,24.3385568 L106.750892,24.3385568 L106.750892,22.4438443 L104.16623,22.4438443 L104.16623,19.6279455 L101.888761,19.6279455 Z M112.397542,32.0116191 C110.416674,32.0116191 109.304421,30.5774996 109.304421,28.0861097 C109.304421,25.6156558 110.416674,24.1710684 112.397542,24.1710684 C114.367817,24.1710684 115.490662,25.6156558 115.490662,28.0861097 C115.490662,30.5670316 114.367817,32.0116191 112.397542,32.0116191 L112.397542,32.0116191 Z M112.397542,34.0110118 C115.766077,34.0110118 117.831688,31.7813225 117.831688,28.0861097 C117.831688,24.4118329 115.755484,22.1716756 112.397542,22.1716756 C109.029007,22.1716756 106.952802,24.4118329 106.952802,28.0861097 C106.952802,31.7813225 109.018414,34.0110118 112.397542,34.0110118 L112.397542,34.0110118 Z M118.870436,33.7911833 L121.147905,33.7911833 L121.147905,27.0602433 C121.147905,25.4586354 122.366086,24.3804289 124.082132,24.3804289 C124.463476,24.3804289 125.162606,24.453705 125.342685,24.5165132 L125.342685,22.2972919 C125.099049,22.2344838 124.664741,22.2030797 124.336361,22.2030797 C122.832173,22.2030797 121.561027,23.0195856 121.232648,24.1396643 L121.063162,24.1396643 L121.063162,22.3915041 L118.870436,22.3915041 L118.870436,33.7911833 Z M130.470284,24.0873242 C132.154551,24.0873242 133.256211,25.2492749 133.309175,27.0393072 L127.483092,27.0393072 C127.610207,25.259743 128.786016,24.0873242 130.470284,24.0873242 L130.470284,24.0873242 Z M133.298582,30.713584 C132.874867,31.6033661 131.932101,32.0953633 130.555027,32.0953633 C128.733052,32.0953633 127.557242,30.8287322 127.483092,28.8293395 L127.483092,28.7037232 L135.629016,28.7037232 L135.629016,27.9186213 C135.629016,24.3385568 133.690519,22.1716756 130.480877,22.1716756 C127.228863,22.1716756 125.163252,24.4851091 125.163252,28.1279818 C125.163252,31.7708545 127.186491,34.0110118 130.49147,34.0110118 C133.129096,34.0110118 134.972257,32.7548488 135.491308,30.713584 L133.298582,30.713584 Z" id="App-Store" fill="#FFFFFF"></path>
                    <path d="M48.640278,6.89513849 L48.640278,14.0881671 L51.2683206,14.0881671 C53.4373386,14.0881671 54.6933513,12.767202 54.6933513,10.4692213 C54.6933513,8.20613399 53.4272501,6.89513849 51.2683206,6.89513849 L48.640278,6.89513849 Z M49.770185,7.91203234 L51.1422149,7.91203234 C52.650439,7.91203234 53.5432674,8.85913936 53.5432674,10.4841756 C53.5432674,12.1341357 52.6655717,13.0712732 51.1422149,13.0712732 L49.770185,13.0712732 L49.770185,7.91203234 Z M58.6692116,13.2407555 C57.7259411,13.2407555 57.1962971,12.5578415 57.1962971,11.3714653 C57.1962971,10.1950587 57.7259411,9.50715995 58.6692116,9.50715995 C59.607438,9.50715995 60.1421262,10.1950587 60.1421262,11.3714653 C60.1421262,12.5528567 59.607438,13.2407555 58.6692116,13.2407555 L58.6692116,13.2407555 Z M58.6692116,14.1928473 C60.2732761,14.1928473 61.2569005,13.1310905 61.2569005,11.3714653 C61.2569005,9.62180974 60.2682319,8.55506816 58.6692116,8.55506816 C57.0651472,8.55506816 56.0764786,9.62180974 56.0764786,11.3714653 C56.0764786,13.1310905 57.060103,14.1928473 58.6692116,14.1928473 L58.6692116,14.1928473 Z M69.7574332,8.6597484 L68.6729242,8.6597484 L67.694344,12.8020954 L67.6085921,12.8020954 L66.4786851,8.6597484 L65.4395742,8.6597484 L64.3096672,12.8020954 L64.2289595,12.8020954 L63.2453351,8.6597484 L62.1456934,8.6597484 L63.6589618,14.0881671 L64.7737361,14.0881671 L65.9036431,10.0903785 L65.989395,10.0903785 L67.1243463,14.0881671 L68.2492091,14.0881671 L69.7574332,8.6597484 Z M71.1355162,14.0881671 L72.2200252,14.0881671 L72.2200252,10.9128662 C72.2200252,10.0654546 72.7547133,9.53706859 73.6273647,9.53706859 C74.4344412,9.53706859 74.8278909,9.97074391 74.8278909,10.8430793 L74.8278909,14.0881671 L75.9123999,14.0881671 L75.9123999,10.5739015 C75.9123999,9.28284513 75.2213407,8.55506816 73.9955934,8.55506816 C73.16834,8.55506816 72.5277231,8.91895664 72.260379,9.52211427 L72.1796714,9.52211427 L72.1796714,8.6597484 L71.1355162,8.6597484 L71.1355162,14.0881671 Z M77.7444635,14.0881671 L78.8289724,14.0881671 L78.8289724,6.54121955 L77.7444635,6.54121955 L77.7444635,14.0881671 Z M83.031823,13.2407555 C82.0885524,13.2407555 81.5589085,12.5578415 81.5589085,11.3714653 C81.5589085,10.1950587 82.0885524,9.50715995 83.031823,9.50715995 C83.9700494,9.50715995 84.5047375,10.1950587 84.5047375,11.3714653 C84.5047375,12.5528567 83.9700494,13.2407555 83.031823,13.2407555 L83.031823,13.2407555 Z M83.031823,14.1928473 C84.6358875,14.1928473 85.6195119,13.1310905 85.6195119,11.3714653 C85.6195119,9.62180974 84.6308432,8.55506816 83.031823,8.55506816 C81.4277586,8.55506816 80.4390899,9.62180974 80.4390899,11.3714653 C80.4390899,13.1310905 81.4227144,14.1928473 83.031823,14.1928473 L83.031823,14.1928473 Z M88.9749322,13.2756489 C88.3847576,13.2756489 87.9559982,12.9915168 87.9559982,12.503009 C87.9559982,12.0244707 88.2990057,11.7702472 89.0556399,11.7203995 L90.3974044,11.6356584 L90.3974044,12.0892728 C90.3974044,12.7622172 89.7920971,13.2756489 88.9749322,13.2756489 L88.9749322,13.2756489 Z M88.6974997,14.177893 C89.4188243,14.177893 90.0190874,13.868837 90.3469622,13.3254967 L90.432714,13.3254967 L90.432714,14.0881671 L91.4768692,14.0881671 L91.4768692,10.3794954 C91.4768692,9.23299739 90.7000581,8.55506816 89.3229839,8.55506816 C88.0770597,8.55506816 87.1892756,9.15324101 87.0783026,10.0853937 L88.1275019,10.0853937 C88.2485634,9.70156613 88.6672343,9.48223608 89.2725416,9.48223608 C90.0140431,9.48223608 90.3974044,9.80624637 90.3974044,10.3794954 L90.3974044,10.8480641 L88.9093572,10.9328052 C87.6029022,11.0125616 86.866445,11.5758411 86.866445,12.5528567 C86.866445,13.5448267 87.6382118,14.177893 88.6974997,14.177893 L88.6974997,14.177893 Z M95.28627,14.177893 C96.0429042,14.177893 96.6835211,13.823974 97.0113959,13.230786 L97.0971478,13.230786 L97.0971478,14.0881671 L98.1362587,14.0881671 L98.1362587,6.54121955 L97.0517497,6.54121955 L97.0517497,9.52211427 L96.9710421,9.52211427 C96.6734327,8.92394142 96.03786,8.57002248 95.28627,8.57002248 C93.8991074,8.57002248 93.0062791,9.65670316 93.0062791,11.3714653 C93.0062791,13.0912123 93.8890189,14.177893 95.28627,14.177893 L95.28627,14.177893 Z M95.5939679,9.53208382 C96.5019289,9.53208382 97.0719267,10.2449065 97.0719267,11.3764501 C97.0719267,12.5129785 96.5069731,13.2158316 95.5939679,13.2158316 C94.6759185,13.2158316 94.1260976,12.5229481 94.1260976,11.3714653 C94.1260976,10.2299521 94.6809627,9.53208382 95.5939679,9.53208382 L95.5939679,9.53208382 Z M105.422141,13.2407555 C104.478871,13.2407555 103.949227,12.5578415 103.949227,11.3714653 C103.949227,10.1950587 104.478871,9.50715995 105.422141,9.50715995 C106.360368,9.50715995 106.895056,10.1950587 106.895056,11.3714653 C106.895056,12.5528567 106.360368,13.2407555 105.422141,13.2407555 L105.422141,13.2407555 Z M105.422141,14.1928473 C107.026206,14.1928473 108.00983,13.1310905 108.00983,11.3714653 C108.00983,9.62180974 107.021162,8.55506816 105.422141,8.55506816 C103.818077,8.55506816 102.829408,9.62180974 102.829408,11.3714653 C102.829408,13.1310905 103.813033,14.1928473 105.422141,14.1928473 L105.422141,14.1928473 Z M109.569505,14.0881671 L110.654014,14.0881671 L110.654014,10.9128662 C110.654014,10.0654546 111.188703,9.53706859 112.061354,9.53706859 C112.86843,9.53706859 113.26188,9.97074391 113.26188,10.8430793 L113.26188,14.0881671 L114.346389,14.0881671 L114.346389,10.5739015 C114.346389,9.28284513 113.65533,8.55506816 112.429583,8.55506816 C111.602329,8.55506816 110.961712,8.91895664 110.694368,9.52211427 L110.613661,9.52211427 L110.613661,8.6597484 L109.569505,8.6597484 L109.569505,14.0881671 Z M119.594404,7.34376813 L119.594404,8.68467227 L118.691487,8.68467227 L118.691487,9.58691633 L119.594404,9.58691633 L119.594404,12.6525522 C119.594404,13.6993547 120.073605,14.1180757 121.279176,14.1180757 C121.491033,14.1180757 121.687758,14.0931518 121.859262,14.0632432 L121.859262,13.1709687 C121.707935,13.185923 121.622183,13.1958925 121.455724,13.1958925 C120.915991,13.1958925 120.678913,12.9466539 120.678913,12.3783896 L120.678913,9.58691633 L121.909704,9.58691633 L121.909704,8.68467227 L120.678913,8.68467227 L120.678913,7.34376813 L119.594404,7.34376813 Z M123.454247,14.0881671 L124.538756,14.0881671 L124.538756,10.9178509 C124.538756,10.0953633 125.088577,9.54205336 125.976361,9.54205336 C126.793526,9.54205336 127.202108,9.98071346 127.202108,10.8480641 L127.202108,14.0881671 L128.286617,14.0881671 L128.286617,10.5838711 C128.286617,9.29281468 127.580425,8.56005293 126.344589,8.56005293 C125.517336,8.56005293 124.881763,8.92394142 124.614419,9.53208382 L124.528667,9.53208382 L124.528667,6.54121955 L123.454247,6.54121955 L123.454247,14.0881671 Z M132.328052,9.46728176 C133.130085,9.46728176 133.654684,10.0205916 133.679905,10.872988 L130.90558,10.872988 C130.966111,10.0255764 131.52602,9.46728176 132.328052,9.46728176 L132.328052,9.46728176 Z M133.674861,12.6226436 C133.473092,13.0463493 133.024156,13.2806337 132.368406,13.2806337 C131.500799,13.2806337 130.94089,12.6774761 130.90558,11.7253843 L130.90558,11.665567 L134.784591,11.665567 L134.784591,11.291709 C134.784591,9.58691633 133.861498,8.55506816 132.333097,8.55506816 C130.784519,8.55506816 129.800894,9.65670316 129.800894,11.3914044 C129.800894,13.1261057 130.764342,14.1928473 132.338141,14.1928473 C133.594154,14.1928473 134.471849,13.5946744 134.719016,12.6226436 L133.674861,12.6226436 Z" id="Download-on-the" fill="#FFFFFF"></path>
                    <g id="logo_apple" transform="translate(13.429752, 6.839907)" fill="#FFFFFF">
                        <path d="M19.9732197,15.3698054 C19.9399748,11.7185841 22.9985059,9.94225307 23.1383638,9.85955399 C21.4061897,7.36385419 18.7213771,7.02286207 17.7779096,6.99567333 C15.5229881,6.76117045 13.3357027,8.32905448 12.1870339,8.32905448 C11.0154377,8.32905448 9.2465795,7.01833062 7.34015622,7.056848 C4.8869116,7.09423252 2.59186686,8.49785124 1.33314602,10.6774819 C-1.26454198,15.1217081 0.67283345,21.6526701 3.16161573,25.2449825 C4.40658006,27.0054534 5.86133119,28.968707 7.76546172,28.8996023 C9.62832271,28.8248333 10.3241729,27.725955 12.5722163,27.725955 C14.7996248,27.725955 15.4530591,28.8996023 17.3950201,28.8542877 C19.3942998,28.8248333 20.6530206,27.0881525 21.8544227,25.3118214 C23.2931245,23.2975889 23.870898,21.3094123 23.8938256,21.2074545 C23.8479705,21.1927273 20.0121964,19.7460597 19.9732197,15.3698054" id="Fill-2"></path>
                        <path d="M16.3048165,4.63251865 C17.3067491,3.3942981 17.9922819,1.70972906 17.8019835,0.000237004084 C16.3518179,0.0636773983 14.5382511,0.991493164 13.4939026,2.20252498 C12.5699235,3.26968304 11.7445328,5.01882533 11.9577587,6.66374413 C13.586759,6.78382773 15.2593216,5.85148051 16.3048165,4.63251865" id="Fill-3"></path>
                    </g>
                </g>
            </g>
        </g>
    </g>
</svg>