<?xml version="1.0" encoding="UTF-8"?>
<svg width="32px" height="32px" viewBox="0 0 32 32" version="1.1" xmlns="http://www.w3.org/2000/svg" xmlns:xlink="http://www.w3.org/1999/xlink">
    <!-- Generator: Sketch 43.1 (39012) - http://www.bohemiancoding.com/sketch -->
    <title>Page 1</title>
    <desc>Created with Sketch.</desc>
    <defs></defs>
    <g id="Page-1" stroke="none" stroke-width="1" fill="none" fill-rule="evenodd">
        <g id="iPhone-7-Plus-Copy" transform="translate(-10.000000, -79.000000)">
            <g id="Page-1" transform="translate(10.000000, 79.000000)">
                <polygon id="Fill-1" fill="#FEE500" points="31.8875695 2.32727273e-05 15.7564276 0.000139636364 15.7564276 16.1312815 31.8875695 16.1312815"></polygon>
                <path d="M21.1864785,21.1986153 C19.7844131,22.6005644 17.9205004,23.3726371 15.9378967,23.3726371 C11.8449222,23.3726371 8.514944,20.0427753 8.514944,15.9499171 C8.514944,13.9670807 9.28701673,12.1030516 10.6889658,10.7011025 C11.6594385,9.73062982 12.8514676,9.06258618 14.1509004,8.74293527 L14.1509004,0.111662545 C10.5698095,0.508695273 7.25309673,2.09519709 4.66807855,4.68009891 C1.65786764,7.69042618 3.49090909e-05,11.6927535 3.49090909e-05,15.9499171 C3.49090909e-05,24.7379316 7.14964945,31.8875462 15.9378967,31.8875462 C20.194944,31.8875462 24.1972713,30.2298298 27.2073658,27.2196189 C29.792384,24.6346007 31.3788858,21.3180044 31.7759185,17.7367971 L23.1446458,17.7367971 C22.8248785,19.0362298 22.1569513,20.2281425 21.1864785,21.1986153" id="Fill-2" fill="#FEFEFE"></path>
            </g>
        </g>
    </g>
</svg>