<?xml version="1.0" encoding="UTF-8"?>
<svg width="133px" height="20px" viewBox="0 0 133 20" version="1.1" xmlns="http://www.w3.org/2000/svg" xmlns:xlink="http://www.w3.org/1999/xlink">
    <!-- Generator: Sketch 43.1 (39012) - http://www.bohemiancoding.com/sketch -->
    <title>Logo Copy</title>
    <desc>Created with Sketch.</desc>
    <defs></defs>
    <g id="Page-1" stroke="none" stroke-width="1" fill="none" fill-rule="evenodd">
        <g id="Desktop-HD-Copy-4" transform="translate(-131.000000, -32.000000)">
            <g id="Logo-Copy" transform="translate(131.000000, 32.000000)">
                <path d="M15.9048577,12.9140625 C15.8448455,14.2335135 15.493351,15.3988665 14.8503636,16.4101562 C14.2073761,17.421446 13.305064,18.2048583 12.1434,18.7604167 C10.981736,19.315975 9.65505851,19.59375 8.16332766,19.59375 C5.70282908,19.59375 3.76532267,18.7821262 2.35075031,17.1588542 C0.936177952,15.5355822 0.228902382,13.2439384 0.228902382,10.2838542 L0.228902382,9.34635417 C0.228902382,7.48870599 0.548248018,5.86328822 1.18694887,4.47005208 C1.82564972,3.07681595 2.74510796,2.00043783 3.94535118,1.24088542 C5.14559439,0.481333008 6.53442642,0.1015625 8.11188892,0.1015625 C10.3837779,0.1015625 12.2098348,0.707025195 13.5901145,1.91796875 C14.9703942,3.1289123 15.7548271,4.79773242 15.9434367,6.92447917 L11.4425472,6.92447917 C11.4082545,5.76995951 11.1210578,4.94097474 10.5809483,4.4375 C10.0408389,3.93402526 9.21782731,3.68229167 8.11188892,3.68229167 C6.9888042,3.68229167 6.16579263,4.10763464 5.64282952,4.95833333 C5.1198664,5.80903203 4.84552921,7.16752539 4.81980972,9.03385417 L4.81980972,10.375 C4.81980972,12.3975796 5.07057105,13.8428776 5.57210125,14.7109375 C6.07363145,15.5789974 6.93736495,16.0130208 8.16332766,16.0130208 C9.20068072,16.0130208 9.99368666,15.7656275 10.5423693,15.2708333 C11.0910519,14.7760392 11.3825352,13.9904568 11.4168278,12.9140625 L15.9048577,12.9140625 Z M24.9966545,12.640625 L22.5533145,12.640625 L22.5533145,19.3333333 L18.0395653,19.3333333 L18.0395653,0.375 L25.4081644,0.375 C27.6286144,0.375 29.3646544,0.874126953 30.6163366,1.87239583 C31.8680188,2.87066471 32.4938506,4.28124089 32.4938506,6.10416667 C32.4938506,7.42361771 32.2302297,8.51735677 31.70298,9.38541667 C31.1757303,10.2534766 30.3505754,10.9565945 29.2274907,11.4947917 L33.1368348,19.1380208 L33.1368348,19.3333333 L28.3015934,19.3333333 L24.9966545,12.640625 Z M22.5533145,9.11197917 L25.4081644,9.11197917 C26.265481,9.11197917 26.9106021,8.88411686 27.343547,8.42838542 C27.7764918,7.97265397 27.992961,7.33680964 27.992961,6.52083333 C27.992961,5.70485703 27.7743486,5.06467246 27.3371171,4.60026042 C26.8998857,4.13584837 26.2569079,3.90364583 25.4081644,3.90364583 L22.5533145,3.90364583 L22.5533145,9.11197917 Z M51.0760945,10.2447917 C51.0760945,12.0937592 50.7374596,13.7300276 50.0601795,15.1536458 C49.3828994,16.5772641 48.4205759,17.6731732 47.1731803,18.4414063 C45.9257847,19.2096393 44.5048038,19.59375 42.9101949,19.59375 C41.3155861,19.59375 39.9010349,19.22266 38.6664991,18.4804688 C37.4319632,17.7382775 36.4696398,16.6770902 35.7794999,15.296875 C35.0893601,13.9166598 34.7271493,12.3324742 34.6928566,10.5442708 L34.6928566,9.4765625 C34.6928566,7.61891432 35.0293483,5.98047585 35.7023418,4.56119792 C36.3753353,3.14191999 37.339802,2.04601081 38.5957708,1.2734375 C39.8517396,0.500864193 41.2812936,0.114583333 42.8844756,0.114583333 C44.4705112,0.114583333 45.8850624,0.496523958 47.1281714,1.26041667 C48.3712805,2.02430938 49.3378904,3.11153809 50.0280302,4.52213542 C50.7181701,5.93273275 51.0675214,7.54947005 51.0760945,9.37239583 L51.0760945,10.2447917 Z M46.4851872,9.45052083 C46.4851872,7.56683086 46.1744146,6.13672363 45.5528601,5.16015625 C44.9313056,4.18358887 44.0418529,3.6953125 42.8844756,3.6953125 C40.6211598,3.6953125 39.4252211,5.41404531 39.2966236,8.8515625 L39.2837639,10.2447917 C39.2837639,12.1024398 39.5881067,13.530377 40.1968015,14.5286458 C40.8054963,15.5269147 41.7099517,16.0260417 42.9101949,16.0260417 C44.050426,16.0260417 44.9291623,15.5355952 45.5464302,14.5546875 C46.1636982,13.5737798 46.476614,12.1632036 46.4851872,10.3229167 L46.4851872,9.45052083 Z M75.1108447,12.9140625 C75.0508325,14.2335135 74.699338,15.3988665 74.0563506,16.4101562 C73.4133631,17.421446 72.511051,18.2048583 71.349387,18.7604167 C70.187723,19.315975 68.8610455,19.59375 67.3693147,19.59375 C64.9088161,19.59375 62.9713097,18.7821262 61.5567373,17.1588542 C60.142165,15.5355822 59.4348894,13.2439384 59.4348894,10.2838542 L59.4348894,9.34635417 C59.4348894,7.48870599 59.754235,5.86328822 60.3929359,4.47005208 C61.0316367,3.07681595 61.951095,2.00043783 63.1513382,1.24088542 C64.3515814,0.481333008 65.7404134,0.1015625 67.3178759,0.1015625 C69.5897649,0.1015625 71.4158218,0.707025195 72.7961015,1.91796875 C74.1763812,3.1289123 74.9608141,4.79773242 75.1494237,6.92447917 L70.6485342,6.92447917 C70.6142415,5.76995951 70.3270448,4.94097474 69.7869353,4.4375 C69.2468259,3.93402526 68.4238143,3.68229167 67.3178759,3.68229167 C66.1947912,3.68229167 65.3717796,4.10763464 64.8488165,4.95833333 C64.3258534,5.80903203 64.0515162,7.16752539 64.0257967,9.03385417 L64.0257967,10.375 C64.0257967,12.3975796 64.2765581,13.8428776 64.7780883,14.7109375 C65.2796185,15.5789974 66.143352,16.0130208 67.3693147,16.0130208 C68.4066677,16.0130208 69.1996737,15.7656275 69.7483563,15.2708333 C70.2970389,14.7760392 70.5885222,13.9904568 70.6228148,12.9140625 L75.1108447,12.9140625 Z M87.8805113,15.7916667 L81.6950031,15.7916667 L80.6147896,19.3333333 L75.792408,19.3333333 L82.6594794,0.375 L86.9031753,0.375 L93.8216855,19.3333333 L88.9735845,19.3333333 L87.8805113,15.7916667 Z M82.7752166,12.2630208 L86.8002978,12.2630208 L84.7813274,5.6875 L82.7752166,12.2630208 Z M102.141901,12.640625 L99.6985613,12.640625 L99.6985613,19.3333333 L95.184812,19.3333333 L95.184812,0.375 L102.553411,0.375 C104.773861,0.375 106.509901,0.874126953 107.761583,1.87239583 C109.013266,2.87066471 109.639097,4.28124089 109.639097,6.10416667 C109.639097,7.42361771 109.375476,8.51735677 108.848227,9.38541667 C108.320977,10.2534766 107.495822,10.9565945 106.372737,11.4947917 L110.282082,19.1380208 L110.282082,19.3333333 L105.44684,19.3333333 L102.141901,12.640625 Z M99.6985613,9.11197917 L102.553411,9.11197917 C103.410728,9.11197917 104.055849,8.88411686 104.488794,8.42838542 C104.921739,7.97265397 105.138208,7.33680964 105.138208,6.52083333 C105.138208,5.70485703 104.919595,5.06467246 104.482364,4.60026042 C104.045132,4.13584837 103.402155,3.90364583 102.553411,3.90364583 L99.6985613,3.90364583 L99.6985613,9.11197917 Z M112.36535,19.3333333 L112.36535,0.375 L118.396542,0.375 C120.051163,0.375 121.538585,0.754770508 122.858853,1.51432292 C124.17912,2.27387533 125.210028,3.34591322 125.951607,4.73046875 C126.693186,6.11502428 127.068256,7.66665807 127.076829,9.38541667 L127.076829,10.2578125 C127.076829,11.9939323 126.714619,13.5499063 125.990186,14.9257812 C125.265754,16.3016562 124.245562,17.3780343 122.929581,18.1549479 C121.6136,18.9318615 120.145468,19.3246527 118.525139,19.3333333 L112.36535,19.3333333 Z M116.8791,3.90364583 L116.8791,15.8177083 L118.447981,15.8177083 C119.742529,15.8177083 120.737001,15.3511331 121.431428,14.4179688 C122.125854,13.4848044 122.473062,12.0980995 122.473062,10.2578125 L122.473062,9.4375 C122.473062,7.60589362 122.125854,6.22569909 121.431428,5.296875 C120.737001,4.36805091 119.725383,3.90364583 118.396542,3.90364583 L116.8791,3.90364583 Z" id="CRO-CARD." fill="#FFFFFF"></path>
                <path d="M130.30461,15.0755208 C130.990463,15.0755208 131.56057,15.281682 132.014948,15.6940104 C132.469326,16.1063389 132.696511,16.6336773 132.696511,17.2760417 C132.696511,17.918406 132.469326,18.4457445 132.014948,18.8580729 C131.56057,19.2704014 130.990463,19.4765625 130.30461,19.4765625 C129.610184,19.4765625 129.037933,19.2682312 128.587842,18.8515625 C128.137751,18.4348938 127.912709,17.9097254 127.912709,17.2760417 C127.912709,16.6423579 128.137751,16.1171896 128.587842,15.7005208 C129.037933,15.2838521 129.610184,15.0755208 130.30461,15.0755208 Z" id="Path" fill="#F8E81C"></path>
            </g>
        </g>
    </g>
</svg>