<?xml version="1.0" encoding="UTF-8"?>
<svg width="150px" height="44px" viewBox="0 0 150 44" version="1.1" xmlns="http://www.w3.org/2000/svg" xmlns:xlink="http://www.w3.org/1999/xlink">
    <!-- Generator: Sketch 43.1 (39012) - http://www.bohemiancoding.com/sketch -->
    <title>Group</title>
    <desc>Created with Sketch.</desc>
    <defs>
        <linearGradient x1="50%" y1="0%" x2="50%" y2="38.9125982%" id="linearGradient-1">
            <stop stop-color="#FBDA09" offset="0%"></stop>
            <stop stop-color="#FFBC00" offset="100%"></stop>
        </linearGradient>
        <path d="M11.2127642,2.70187859 C12.090492,1.1720485 13.5168143,1.17766679 14.3913441,2.70187859 L26.6753451,24.1115765 C27.5530984,25.6414066 26.8351124,26.8815789 25.071638,26.8815789 L0.532873163,26.8815789 C-1.23058316,26.8815789 -1.94538449,25.6357883 -1.07088006,24.1115765 L11.2127642,2.70187859 Z" id="path-2"></path>
        <linearGradient x1="0%" y1="58.4755255%" x2="69.3064856%" y2="39.0830098%" id="linearGradient-4">
            <stop stop-color="#01E2FF" offset="0%"></stop>
            <stop stop-color="#01C4FF" offset="100%"></stop>
        </linearGradient>
        <linearGradient x1="20.2810876%" y1="20.1019903%" x2="83.820166%" y2="83.6214476%" id="linearGradient-5">
            <stop stop-color="#28D781" offset="0%"></stop>
            <stop stop-color="#02F076" offset="100%"></stop>
        </linearGradient>
        <linearGradient x1="74.4881466%" y1="17.4301299%" x2="10.1079427%" y2="91.1838038%" id="linearGradient-6">
            <stop stop-color="#F2414E" offset="0%"></stop>
            <stop stop-color="#E02554" offset="100%"></stop>
        </linearGradient>
    </defs>
    <g id="Page-1" stroke="none" stroke-width="1" fill="none" fill-rule="evenodd">
        <g id="Desktop-HD-Copy-5" transform="translate(-522.000000, -1784.000000)">
            <g id="Group" transform="translate(522.000000, 1784.000000)">
                <g id="Playstore">
                    <rect id="background" stroke="#FFFFFF" stroke-width="0.78125" x="0.390625" y="0.390625" width="149.21875" height="43.1383578" rx="5.06756757"></rect>
                    <g id="get-it-on" transform="translate(45.998655, 7.400000)" fill="#FFFFFF">
                        <path d="M33.4902488,7.2 C31.4846418,7.2 29.8587761,5.5882251 29.8587761,3.6 C29.8587761,1.6117749 31.4846418,0 33.4902488,0 C35.4958558,0 37.1217216,1.6117749 37.1217216,3.6 C37.1217216,5.5882251 35.4958558,7.2 33.4902488,7.2 Z M33.4902488,6.1 C34.8830315,6.1 36.0121049,4.98071187 36.0121049,3.6 C36.0121049,2.21928813 34.8830315,1.1 33.4902488,1.1 C32.0974662,1.1 30.9683927,2.21928813 30.9683927,3.6 C30.9683927,4.98071187 32.0974662,6.1 33.4902488,6.1 Z" id="o"></path>
                        <path d="M8.87693342,4 L8.87693342,6.2 L11.8022865,6.2 L11.8022865,7 L7.76731675,7 L7.76731675,6.6 L7.76731675,0.75 L7.76731675,0.3 L11.8022865,0.3 L11.8022865,1.1 L8.87693342,1.1 L8.87693342,3.2 L11.4996638,3.2 L11.4996638,4 L8.87693342,4 Z" id="e"></path>
                        <path d="M15.736382,1.1 L15.736382,7 L14.6267653,7 L14.6267653,1.1 L12.9119032,1.1 L12.9119032,0.3 L17.4512441,0.3 L17.4512441,1.1 L15.736382,1.1 Z" id="t"></path>
                        <path d="M25.6220578,1.1 L25.6220578,7 L24.5124412,7 L24.5124412,1.1 L22.797579,1.1 L22.797579,0.3 L27.33692,0.3 L27.33692,1.1 L25.6220578,1.1 Z" id="t"></path>
                        <rect id="i" x="20.6792199" y="0.3" width="1.10961668" height="6.7"></rect>
                        <path d="M38.6852724,0.3 L38.0295898,0.3 L38.0295898,7 L39.1392065,7 L39.1392065,1.77073171 L42.3671822,7 L42.9219906,7 L43.4767989,7 L43.4767989,0.3 L42.3671822,0.3 L42.3671822,5.20243902 L39.3409549,0.3 L38.6852724,0.3 Z" id="n"></path>
                        <g id="g" transform="translate(0.000000, 0.100000)">
                            <polygon id="Rectangle-1" points="3.60960946 3.21701113 6.64769743 3.21701113 6.61761735 4.17019961 3.60960946 4.17019961"></polygon>
                            <path d="M6.04985034,0.974252872 C5.45852096,0.35600612 4.59349294,0 3.56448934,0 C1.59587624,0 0,1.58033459 0,3.5297761 C0,5.47921761 1.59587814,7.05675695 3.56448934,7.0595522 C5.56598959,7.07741285 7.23537522,5.67974438 6.90155684,3.25244154 C6.90155684,3.24060753 6.90150641,3.22879734 6.90140573,3.21701113 L6.01396068,3.21701113 C6.02118614,3.3183481 6.02370561,3.42263788 6.02130328,3.5297761 C6.02341829,5.26342256 5.01496116,6.07657658 3.59456942,6.07657658 C2.17417769,6.07657658 1.02272268,4.93633516 1.02272268,3.5297761 C1.02272268,2.12321704 2.17417769,0.982975623 3.59456942,0.982975623 C4.30516863,0.982975623 4.92103388,1.22365484 5.35465074,1.66268218 L6.04985034,0.974252872 Z" id="Oval-1"></path>
                        </g>
                    </g>
                    <g id="googleplay" transform="translate(45.494284, 19.200000)" fill="#FFFFFF">
                        <g id="big-P" transform="translate(62.945528, 0.500000)">
                            <path d="M0.504371217,3.51464178e-07 L6.22322397,0 C6.22322397,0 9.51540985,0.555273438 9.51540959,4.30297987 C9.51540933,8.05068629 6.22322397,8.60595973 6.22322397,8.60595973 L0.504371217,8.60596008 L0.504371217,3.51464178e-07 Z M1.6139879,2.08169128 L1.6139879,6.7 L5.49622455,6.7 C5.49622455,6.7 7.26294553,6.7 7.26294553,4.39084564 C7.26294553,2.08169128 5.49622455,2.08169128 5.49622455,2.08169128 L1.6139879,2.08169128 Z" id="Combined-Shape"></path>
                            <rect id="Rectangle-6" x="0" y="0" width="2.01748487" height="14"></rect>
                        </g>
                        <rect id="y" x="73.6381977" y="0.5" width="2.01748487" height="14"></rect>
                        <path d="M83.1332904,13.4990133 C82.5776039,13.953522 81.6892007,14.3812901 80.2860558,14.4681641 C77.0715268,14.6671877 77.0698519,11.7592772 77.0698519,11.5631836 C77.0698519,11.36709 76.9113001,8.9956543 79.4683735,8.61870117 C81.2790331,8.35178127 82.5472067,8.79652114 83.1332904,9.07890503 L83.1332904,8.66756044 C82.9895666,8.12277765 82.5435559,7.12177734 81.2064348,7.12177734 C79.3694291,7.12177734 78.963756,8.10634766 78.963756,8.10634766 L77.2832739,7.12177734 C77.2832739,7.12177734 78.2236413,5.2 81.0452724,5.2 C84.5536969,5.2 85.1509846,7.59893799 85.1509846,8.40689697 C85.1509846,8.41082973 85.1509146,8.41473706 85.1507753,8.41861912 L85.1507753,14.4955078 L83.1332904,14.4955078 L83.1332904,13.4990133 Z M82.9891703,10.500293 C82.9891703,10.500293 79.1024581,9.46176765 78.9673516,11.6263184 C78.8322452,13.7908691 82.6961031,12.7515137 83.0413313,11.2170898 C83.0413313,10.7291504 82.9891703,10.500293 82.9891703,10.500293 Z" id="a"></path>
                        <path d="M88.9364482,13.968842 L87.0544721,18.4 L89.071957,18.4 L94.5301992,5.5484375 L92.5127144,5.5484375 L89.9451906,11.5937338 L87.3570948,5.5 L85.33961,5.5 L88.9364482,13.968842 Z" id="y"></path>
                        <path d="M58.4289187,8.77256561 L52.0482228,11.3867149 C52.0482228,11.3867149 52.4603117,12.8325968 54.3787137,12.8422877 C55.880894,12.849876 56.7288833,11.5223582 56.7288833,11.5223582 L58.3477515,12.609202 C58.3477515,12.609202 57.0414137,14.7036382 54.3659624,14.7036382 C51.0782016,14.7036382 49.6301278,11.8536746 49.6301278,10.0028142 C49.6301278,8.21955793 50.779526,5.2 54.161941,5.2 C57.5443559,5.2 58.4289187,8.77256561 58.4289187,8.77256561 Z M56.0011988,8.03201529 C56.0011988,8.03201529 55.1984187,6.8211908 53.9672379,7.04449359 C51.3628998,7.51684986 51.6906336,9.77615592 51.6906336,9.77615592 L56.0011988,8.03201529 Z" id="e"></path>
                        <rect id="i" x="46.6039005" y="0.5" width="2.13437777" height="13.9705882"></rect>
                        <path d="M43.1882881,5.50362628 L45.1613124,5.52052336 L45.1613124,14.3355363 C45.1613124,16.5877479 43.8086897,18.9651733 40.6242883,18.9651733 C37.4398869,18.9651733 36.4114425,16.1682058 36.4114425,16.1682058 L38.2234811,15.412739 C38.2234811,15.412739 38.7761413,17.1365081 40.718452,17.1365058 C42.9303187,17.1365032 43.1885333,15.1416343 43.1885333,14.458785 L43.1885333,13.5021519 C43.1885333,13.5021519 42.4232078,14.6895886 40.5222776,14.6895912 C38.4612813,14.6895941 36.0121049,12.9390838 36.0121049,9.95481092 C36.0121049,6.97053804 38.3183192,5.26356743 40.5461251,5.20147593 C42.330577,5.15174121 43.1882881,6.37547098 43.1882881,6.37547098 L43.1882881,5.50362628 Z M40.6907424,12.8982756 C42.1295526,12.8982756 43.2959388,11.5917079 43.2959388,9.97997496 C43.2959388,8.36824201 42.1295526,7.06167431 40.6907424,7.06167431 C39.2519322,7.06167431 38.085546,8.36824201 38.085546,9.97997496 C38.085546,11.5917079 39.2519322,12.8982756 40.6907424,12.8982756 Z" id="g"></path>
                        <path d="M30.3235336,14.7 C27.6712689,14.7 25.5211836,12.5733526 25.5211836,9.95 C25.5211836,7.32664744 27.6712689,5.2 30.3235336,5.2 C32.9757982,5.2 35.1258836,7.32664744 35.1258836,9.95 C35.1258836,12.5733526 32.9757982,14.7 30.3235336,14.7 Z M30.2921457,12.8372549 C31.7829611,12.8372549 32.9915058,11.5445869 32.9915058,9.95 C32.9915058,8.35541315 31.7829611,7.0627451 30.2921457,7.0627451 C28.8013302,7.0627451 27.5927855,8.35541315 27.5927855,9.95 C27.5927855,11.5445869 28.8013302,12.8372549 30.2921457,12.8372549 Z" id="o"></path>
                        <path d="M19.9334865,14.7 C17.2812218,14.7 15.1311365,12.5733526 15.1311365,9.95 C15.1311365,7.32664744 17.2812218,5.2 19.9334865,5.2 C22.5857512,5.2 24.7358365,7.32664744 24.7358365,9.95 C24.7358365,12.5733526 22.5857512,14.7 19.9334865,14.7 Z M19.9020986,12.8372549 C21.392914,12.8372549 22.6014587,11.5445869 22.6014587,9.95 C22.6014587,8.35541315 21.392914,7.0627451 19.9020986,7.0627451 C18.4112832,7.0627451 17.2027385,8.35541315 17.2027385,9.95 C17.2027385,11.5445869 18.4112832,12.8372549 19.9020986,12.8372549 Z" id="o"></path>
                        <g id="big-g">
                            <polygon id="Rectangle-1" points="7.53309801 6.70588235 13.8734555 6.70588235 13.8106797 8.69281046 7.53309801 8.69281046"></polygon>
                            <path d="M12.6257746,2.03083697 C11.3916959,0.742097264 9.58642004,0 7.43893428,0 C3.33052432,0 0,3.29421858 0,7.35784314 C0,11.4214677 3.33052828,14.7098596 7.43893428,14.7156863 C11.6159783,14.7529169 15.0999135,11.8394672 14.4032491,6.77973729 C14.4032491,6.75506922 14.4031438,6.7304508 14.4029337,6.70588235 L12.5508745,6.70588235 C12.5659537,6.91711998 12.5712117,7.13451277 12.5661982,7.35784314 C12.5706121,10.9716414 10.4660059,12.6666667 7.5017101,12.6666667 C4.53741431,12.6666667 2.13437777,10.2898254 2.13437777,7.35784314 C2.13437777,4.42586086 4.53741431,2.04901961 7.5017101,2.04901961 C8.98469975,2.04901961 10.2699838,2.55071713 11.1749233,3.46587272 L12.6257746,2.03083697 Z" id="Oval-1"></path>
                        </g>
                    </g>
                    <g id="logo_play" transform="translate(10.995293, 7.700000)">
                        <mask id="mask-3" fill="white">
                            <use xlink:href="#path-2"></use>
                        </mask>
                        <use id="yellow" fill="url(#linearGradient-1)" transform="translate(12.801841, 14.210516) rotate(-270.000000) translate(-12.801841, -14.210516) " xlink:href="#path-2"></use>
                        <polygon id="blue" fill="url(#linearGradient-4)" mask="url(#mask-3)" points="2.77555756e-17 0.0901388885 14.1008921 13.983674 -0.182134051 28.4263498"></polygon>
                        <polygon id="green" fill="url(#linearGradient-5)" mask="url(#mask-3)" points="-2.89966749 -2.77004557 14.0992187 13.9877379 19.1531856 9.20812284"></polygon>
                        <polygon id="red" fill="url(#linearGradient-6)" mask="url(#mask-3)" points="14.1015343 13.9845407 21.838651 21.7156037 -1.27524969 29.4466667"></polygon>
                    </g>
                </g>
            </g>
        </g>
    </g>
</svg>