<?xml version="1.0" encoding="UTF-8"?>
<svg width="15px" height="15px" viewBox="0 0 15 15" version="1.1" xmlns="http://www.w3.org/2000/svg" xmlns:xlink="http://www.w3.org/1999/xlink">
    <!-- Generator: Sketch 43.1 (39012) - http://www.bohemiancoding.com/sketch -->
    <title>search copy</title>
    <desc>Created with Sketch.</desc>
    <defs></defs>
    <g id="Page-1" stroke="none" stroke-width="1" fill="none" fill-rule="evenodd">
        <g id="Desktop-HD-Copy-4" transform="translate(-297.000000, -33.000000)" fill="#4A4A4A">
            <path d="M308.171451,42.5571348 C307.88791,42.2993087 307.815502,41.8838094 307.994153,41.5447782 C308.530784,40.5263313 308.774399,39.3292333 308.614019,38.0658177 C308.294612,35.5565811 306.315239,33.4905888 303.818859,33.0811799 C299.830337,32.4268024 296.429875,35.8245578 297.080192,39.8130801 C297.486894,42.3060758 299.545443,44.2854493 302.051296,44.611623 C303.312004,44.7753866 304.507072,44.5351549 305.525519,44.002585 C305.861167,43.8273174 306.271252,43.8983718 306.528402,44.1764992 L309.681865,47.5810217 C310.232706,48.1758488 311.217318,48.1325395 311.736354,47.4815455 C312.184335,46.9192004 312.057114,46.0868484 311.524544,45.6036783 L308.171451,42.5571348 Z M298.501281,38.8311755 C298.501281,36.4396862 300.440052,34.5015919 302.831541,34.5015919 C305.222354,34.5015919 307.161125,36.4396862 307.161125,38.8311755 C307.161125,41.2226648 305.222354,43.1607591 302.831541,43.1607591 C300.440052,43.1607591 298.501281,41.2226648 298.501281,38.8311755 L298.501281,38.8311755 Z" id="search-copy"></path>
        </g>
    </g>
</svg>